<svg width="647" height="112" viewBox="0 0 647 112" fill="none" xmlns="http://www.w3.org/2000/svg">
<path fill-rule="evenodd" clip-rule="evenodd" d="M0.370117 12.0001H36.7801C45.2135 12.0001 52.6934 13.5767 59.2201 16.7301C65.7468 19.8834 70.8068 24.3567 74.4001 30.1501C77.9935 35.9434 79.7901 42.7267 79.7901 50.5001C79.7901 58.2734 77.9935 65.0567 74.4001 70.8501C70.8068 76.6434 65.7468 81.1167 59.2201 84.2701C52.6934 87.4234 45.2135 89.0001 36.7801 89.0001H0.370117V12.0001ZM35.9001 71.6201C42.5002 71.6201 47.7984 69.7501 51.7951 66.0101C55.7918 62.27 57.7901 57.1001 57.7901 50.5001C57.7901 43.9 55.7918 38.7301 51.7951 34.9901C47.7984 31.25 42.5002 29.3801 35.9001 29.3801H22.1501V71.6201H35.9001ZM90.2401 29.3801H111.14V89.0001H90.2401V29.3801ZM100.69 22.7801C96.8768 22.7801 93.7968 21.7167 91.4501 19.5901C89.1034 17.4634 87.9301 14.8234 87.9301 11.6701C87.9301 8.51671 89.1034 5.87674 91.4501 3.75006C93.7968 1.62338 96.8768 0.560059 100.69 0.560059C104.503 0.560059 107.583 1.56838 109.93 3.58506C112.277 5.60174 113.45 8.18671 113.45 11.3401C113.45 14.6401 112.277 17.3717 109.93 19.5351C107.583 21.6984 104.503 22.7801 100.69 22.7801ZM188.8 29.3801V78.1101C188.8 89.1834 185.793 97.4884 179.78 103.025C173.767 108.562 165.114 111.33 153.82 111.33C147.953 111.33 142.453 110.67 137.32 109.35C132.187 108.03 127.823 106.087 124.23 103.52L131.82 88.8901C134.24 90.8701 137.302 92.4284 141.005 93.5651C144.708 94.7017 148.357 95.2701 151.95 95.2701C157.45 95.2701 161.483 94.0601 164.05 91.6401C166.617 89.22 167.9 85.6267 167.9 80.8601V78.8801C163.867 83.5734 157.963 85.9201 150.19 85.9201C144.91 85.9201 140.033 84.7284 135.56 82.3451C131.087 79.9617 127.53 76.5884 124.89 72.2251C122.25 67.8617 120.93 62.8201 120.93 57.1001C120.93 51.4534 122.25 46.4484 124.89 42.0851C127.53 37.7217 131.087 34.3484 135.56 31.9651C140.033 29.5817 144.91 28.3901 150.19 28.3901C158.697 28.3901 164.93 31.14 168.89 36.6401V29.3801H188.8ZM155.14 69.3101C158.88 69.3101 161.978 68.1734 164.435 65.9001C166.892 63.6267 168.12 60.6934 168.12 57.1001C168.12 53.5067 166.91 50.5917 164.49 48.3551C162.07 46.1184 158.953 45.0001 155.14 45.0001C151.327 45.0001 148.192 46.1184 145.735 48.3551C143.278 50.5917 142.05 53.5067 142.05 57.1001C142.05 60.6934 143.297 63.6267 145.79 65.9001C148.283 68.1734 151.4 69.3101 155.14 69.3101ZM202.22 29.3801H223.12V89.0001H202.22V29.3801ZM212.67 22.7801C208.857 22.7801 205.777 21.7167 203.43 19.5901C201.083 17.4634 199.91 14.8234 199.91 11.6701C199.91 8.51671 201.083 5.87674 203.43 3.75006C205.777 1.62338 208.857 0.560059 212.67 0.560059C216.483 0.560059 219.563 1.56838 221.91 3.58506C224.257 5.60174 225.43 8.18671 225.43 11.3401C225.43 14.6401 224.257 17.3717 221.91 19.5351C219.563 21.6984 216.483 22.7801 212.67 22.7801ZM277.79 86.5801C276.03 87.6801 273.885 88.5234 271.355 89.1101C268.825 89.6967 266.13 89.9901 263.27 89.9901C255.497 89.9901 249.52 88.0834 245.34 84.2701C241.16 80.4567 239.07 74.7734 239.07 67.2201V47.2001H230.38V31.5801H239.07V16.0701H259.97V31.5801H273.61V47.2001H259.97V67.0001C259.97 69.1267 260.538 70.7951 261.675 72.0051C262.812 73.2151 264.333 73.8201 266.24 73.8201C268.66 73.8201 270.787 73.1967 272.62 71.9501L277.79 86.5801ZM311.23 28.3901C321.13 28.3901 328.683 30.645 333.89 35.1551C339.097 39.6651 341.7 46.5767 341.7 55.8901V89.0001H322.23V81.3001C319.223 87.0934 313.357 89.9901 304.63 89.9901C300.01 89.9901 296.013 89.1834 292.64 87.5701C289.267 85.9567 286.718 83.7751 284.995 81.0251C283.272 78.275 282.41 75.1401 282.41 71.6201C282.41 65.9734 284.573 61.5917 288.9 58.4751C293.227 55.3584 299.9 53.8001 308.92 53.8001H320.8C320.433 47.4934 316.217 44.3401 308.15 44.3401C305.29 44.3401 302.393 44.7984 299.46 45.7151C296.527 46.6317 294.033 47.8967 291.98 49.5101L284.94 35.3201C288.24 33.12 292.255 31.4151 296.985 30.2051C301.715 28.9951 306.463 28.3901 311.23 28.3901ZM310.46 76.7901C312.88 76.7901 315.007 76.2034 316.84 75.0301C318.673 73.8567 319.993 72.1334 320.8 69.8601V64.6901H311.78C305.693 64.6901 302.65 66.7067 302.65 70.7401C302.65 72.5734 303.347 74.04 304.74 75.1401C306.133 76.2401 308.04 76.7901 310.46 76.7901ZM354.9 7.38006H375.8V89.0001H354.9V7.38006ZM443.01 89.9901C438.023 89.9901 433.11 89.4217 428.27 88.2851C423.43 87.1484 419.543 85.6634 416.61 83.8301L422.88 69.5301C425.593 71.2167 428.82 72.5551 432.56 73.5451C436.3 74.5351 440.003 75.0301 443.67 75.0301C447.043 75.0301 449.445 74.6817 450.875 73.9851C452.305 73.2884 453.02 72.2801 453.02 70.9601C453.02 69.6401 452.158 68.7051 450.435 68.1551C448.712 67.6051 445.98 67.0734 442.24 66.5601C437.473 65.9734 433.422 65.2034 430.085 64.2501C426.748 63.2967 423.87 61.5367 421.45 58.9701C419.03 56.4034 417.82 52.8101 417.82 48.1901C417.82 44.3767 418.957 40.9851 421.23 38.0151C423.503 35.045 426.822 32.6984 431.185 30.9751C435.548 29.2517 440.773 28.3901 446.86 28.3901C451.187 28.3901 455.477 28.8301 459.73 29.7101C463.983 30.5901 467.54 31.8367 470.4 33.4501L464.13 47.6401C458.85 44.7067 453.13 43.2401 446.97 43.2401C443.67 43.2401 441.25 43.6251 439.71 44.3951C438.17 45.1651 437.4 46.1734 437.4 47.4201C437.4 48.8134 438.243 49.7851 439.93 50.3351C441.617 50.8851 444.403 51.4534 448.29 52.0401C453.203 52.7734 457.273 53.6167 460.5 54.5701C463.727 55.5234 466.532 57.265 468.915 59.7951C471.298 62.3251 472.49 65.8634 472.49 70.4101C472.49 74.1501 471.353 77.505 469.08 80.4751C466.807 83.4451 463.452 85.7734 459.015 87.4601C454.578 89.1467 449.243 89.9901 443.01 89.9901ZM508.57 68.1001L502.41 74.3701V89.0001H481.51V7.38006H502.41V50.1701L523.75 29.3801H548.5L523.75 54.9001L550.59 89.0001H525.29L508.57 68.1001ZM556.75 29.3801H577.65V89.0001H556.75V29.3801ZM567.2 22.7801C563.387 22.7801 560.307 21.7167 557.96 19.5901C555.613 17.4634 554.44 14.8234 554.44 11.6701C554.44 8.51671 555.613 5.87674 557.96 3.75006C560.307 1.62338 563.387 0.560059 567.2 0.560059C571.013 0.560059 574.093 1.56838 576.44 3.58506C578.787 5.60174 579.96 8.18671 579.96 11.3401C579.96 14.6401 578.787 17.3717 576.44 19.5351C574.093 21.6984 571.013 22.7801 567.2 22.7801ZM591.18 7.38006H612.08V89.0001H591.18V7.38006ZM625.61 7.38006H646.51V89.0001H625.61V7.38006Z" fill="white"/>
</svg>
