<svg width="104" height="42" viewBox="0 0 104 42" fill="none" xmlns="http://www.w3.org/2000/svg">
<g opacity="0.6">
<path fill-rule="evenodd" clip-rule="evenodd" d="M44.3319 23.0398C42.9894 24.3379 41.1777 25.0532 39.2982 25.027C37.4048 25.0598 35.5826 24.3164 34.2647 22.9743C32.8828 21.6885 32.1251 19.8807 32.1833 18.0073C32.1444 16.17 32.8725 14.3975 34.1973 13.1058H34.1983C35.5153 11.7637 37.3378 11.0199 39.2307 11.0519C41.1322 11.0129 42.9701 11.7289 44.3319 13.0393C47.1056 15.8109 47.1056 20.2682 44.3319 23.0398ZM49.0315 7.80742H47.2186C46.6143 7.80742 46.3468 8.07317 46.3468 8.66867V10.2582C42.0861 6.64242 35.7308 6.84392 31.7137 10.7215C27.598 14.8069 27.598 21.405 31.7137 25.4905C33.7092 27.4934 36.4535 28.5954 39.2992 28.5368C41.8971 28.5307 44.4033 27.5887 46.3468 25.8875V27.6777C46.3468 28.2749 46.6145 28.5389 47.2186 28.5389H49.0315C49.636 28.5389 49.9043 28.2739 49.9043 27.6777V8.66867C49.9043 8.07242 49.6346 7.80742 49.0315 7.80742Z" fill="#2F2F2F"/>
<path fill-rule="evenodd" clip-rule="evenodd" d="M3.82588 16.5487C4.14852 14.9194 5.02447 13.4476 6.30946 12.3764C8.74251 10.5142 12.2025 10.7417 14.3637 12.9062C15.3542 13.8781 15.9507 15.1733 16.0418 16.5487H3.82588ZM16.7124 10.2571C14.9655 8.55193 12.5919 7.6198 10.1353 7.6743C7.46588 7.60768 4.88855 8.63918 3.02048 10.5219C-1.03273 14.7203 -1.00309 21.3278 3.08787 25.4904C5.08274 27.4933 7.82677 28.5954 10.6724 28.5367C13.0845 28.5576 15.4554 27.9153 17.5187 26.6822C17.9893 26.4162 18.1903 26.2178 18.1903 25.9528C18.2013 25.7879 18.1537 25.6244 18.0558 25.4904L17.384 24.0993C17.3137 23.8272 17.0654 23.6366 16.7809 23.6361C16.6134 23.6253 16.4475 23.6723 16.3113 23.7688C14.6201 24.6634 12.7262 25.1193 10.8072 25.0936C7.36086 25.2518 4.32409 22.8772 3.69223 19.5303H18.7265C19.3309 19.5303 19.5982 19.2652 19.5982 18.6688V17.5428C19.7054 14.8238 18.66 12.1836 16.7124 10.2571Z" fill="#2F2F2F"/>
<path fill-rule="evenodd" clip-rule="evenodd" d="M23.2098 28.5389C22.6054 28.5389 22.3379 28.274 22.3379 27.7443V0.986378C22.3379 0.390878 22.6054 0.124878 23.2098 0.124878H25.0228C25.6259 0.124878 25.8944 0.390003 25.8944 0.986378V27.6776C25.8944 28.273 25.626 28.5389 25.0228 28.5389H23.2098Z" fill="#2F2F2F"/>
<path fill-rule="evenodd" clip-rule="evenodd" d="M73.8279 5.09274C73.4689 4.76699 73.2643 4.30811 73.2629 3.82711C73.264 3.33111 73.4675 2.85636 73.8279 2.51049C74.5854 1.83586 75.7378 1.83586 76.4954 2.51049C76.8469 2.86199 77.049 3.33324 77.0595 3.82711C77.0686 4.31024 76.8624 4.77286 76.4954 5.09274C75.7378 5.76749 74.5854 5.76749 73.8279 5.09274Z" fill="#2F2F2F"/>
<path fill-rule="evenodd" clip-rule="evenodd" d="M73.3826 9.03919C73.3826 8.06981 74.179 7.28394 75.1613 7.28394C76.1438 7.28394 76.9402 8.06981 76.9402 9.03919V27.6777C76.9402 28.2739 76.6718 28.5389 76.0663 28.5389H74.2562C73.6523 28.5389 73.3826 28.2749 73.3826 27.6777V8.93031" fill="#2F2F2F"/>
<path fill-rule="evenodd" clip-rule="evenodd" d="M80.0994 5.09274C79.7404 4.76699 79.5358 4.30811 79.5344 3.82711C79.5354 3.33111 79.739 2.85636 80.0994 2.51049C80.8569 1.83586 82.0093 1.83586 82.7669 2.51049C83.1184 2.86199 83.3204 3.33324 83.331 3.82711C83.3401 4.31024 83.1339 4.77286 82.7669 5.09274C82.0093 5.76749 80.8569 5.76749 80.0994 5.09274Z" fill="#2F2F2F"/>
<path fill-rule="evenodd" clip-rule="evenodd" d="M79.6541 9.03919C79.6541 8.06981 80.4505 7.28394 81.4328 7.28394C82.4153 7.28394 83.2117 8.06981 83.2117 9.03919V27.6777C83.2117 28.2739 82.9432 28.5389 82.3378 28.5389H80.5277C79.9237 28.5389 79.6541 28.2749 79.6541 27.6777V8.93031" fill="#2F2F2F"/>
<path fill-rule="evenodd" clip-rule="evenodd" d="M70.6918 15.7749C70.6918 11.0899 66.8429 7.29187 62.0952 7.29187C59.8163 7.29187 57.7459 8.1685 56.2073 9.59675H56.195V8.66962C56.195 8.07237 55.9256 7.80737 55.3222 7.80737H53.5103C52.9049 7.80737 52.6365 8.07337 52.6365 8.66962V27.6777C52.6365 28.275 52.9062 28.5389 53.5103 28.5389H55.3222C55.9266 28.5389 56.195 28.274 56.195 27.6777V16.4172L56.1969 16.185C56.1969 13.1877 58.6474 10.7669 61.6847 10.7669C64.7223 10.7669 67.1846 13.1966 67.1846 16.1937L67.1915 16.1917L67.2024 16.6831V27.6777C67.2024 28.274 67.472 28.5389 68.0762 28.5389H69.8197C70.4241 28.5389 70.6914 28.273 70.6914 27.6777V16.2197C70.693 16.0684 70.6886 15.9177 70.681 15.7674L70.6918 15.7749Z" fill="#2F2F2F"/>
<path fill-rule="evenodd" clip-rule="evenodd" d="M103.999 15.8314C103.999 11.1464 100.151 7.34839 95.4028 7.34839C93.1238 7.34839 91.0535 8.22501 89.5149 9.65326H89.5026V8.66964C89.5026 8.07226 89.2332 7.80739 88.6299 7.80739H86.8179C86.2125 7.80739 85.9441 8.07326 85.9441 8.66964V27.6676C85.9441 28.265 86.2138 28.529 86.8179 28.529H88.6299C89.2342 28.529 89.5026 28.264 89.5026 27.6676V16.4738L89.5045 16.2415C89.5045 13.2443 91.9551 10.8234 94.9923 10.8234C98.0298 10.8234 100.492 13.2531 100.492 16.2503L100.499 16.2483L100.51 16.7396V27.6776C100.51 28.274 100.78 28.5389 101.384 28.5389H103.127C103.732 28.5389 103.999 28.273 103.999 27.6776V16.2763C104.001 16.1249 103.996 15.9743 103.989 15.8239L103.999 15.8314Z" fill="#2F2F2F"/>
<path fill-rule="evenodd" clip-rule="evenodd" d="M8.29295 38.2302H6.8562V37.3945H10.7688V38.2302H9.33206V41.825H8.29295V38.2302Z" fill="#444444"/>
<path fill-rule="evenodd" clip-rule="evenodd" d="M18.0105 41.0023V41.825H14.5342V37.3947H17.9272V38.2175H15.5667V39.1794H17.6513V39.9769H15.5667V41.0023H18.0105Z" fill="#444444"/>
<path fill-rule="evenodd" clip-rule="evenodd" d="M21.7502 39.6099C21.7502 38.2745 22.7892 37.3187 24.1875 37.3187C24.9636 37.3187 25.6114 37.5972 26.0348 38.1035L25.3678 38.7112C25.0662 38.3694 24.6878 38.1921 24.2389 38.1921C23.3987 38.1921 22.8022 38.7744 22.8022 39.6099C22.8022 40.4455 23.3987 41.0277 24.2389 41.0277C24.6878 41.0277 25.0662 40.8505 25.3678 40.5024L26.0348 41.11C25.6114 41.6226 24.9636 41.901 24.1811 41.901C22.7892 41.901 21.7502 40.9454 21.7502 39.6099Z" fill="#444444"/>
<path fill-rule="evenodd" clip-rule="evenodd" d="M34.059 37.3947V41.825H33.0199V40.0085H30.9801V41.825H29.9412V37.3947H30.9801V39.1415H33.0199V37.3947H34.059Z" fill="#444444"/>
<path fill-rule="evenodd" clip-rule="evenodd" d="M43.071 39.6099C43.071 38.2745 44.11 37.3187 45.5083 37.3187C46.2844 37.3187 46.9322 37.5972 47.3556 38.1035L46.6886 38.7112C46.387 38.3694 46.0085 38.1921 45.5597 38.1921C44.7195 38.1921 44.123 38.7744 44.123 39.6099C44.123 40.4455 44.7195 41.0277 45.5597 41.0277C46.0085 41.0277 46.387 40.8505 46.6886 40.5024L47.3556 41.11C46.9322 41.6226 46.2844 41.901 45.5018 41.901C44.11 41.901 43.071 40.9454 43.071 39.6099Z" fill="#444444"/>
<path fill-rule="evenodd" clip-rule="evenodd" d="M54.7448 39.6099C54.7448 38.7682 54.1419 38.1921 53.3401 38.1921C52.5384 38.1921 51.9355 38.7682 51.9355 39.6099C51.9355 40.4516 52.5384 41.0277 53.3401 41.0277C54.1419 41.0277 54.7448 40.4516 54.7448 39.6099ZM50.8835 39.6099C50.8835 38.2935 51.9227 37.3187 53.3401 37.3187C54.7513 37.3187 55.7968 38.287 55.7968 39.6099C55.7968 40.9326 54.7513 41.901 53.3401 41.901C51.9227 41.901 50.8835 40.9264 50.8835 39.6099Z" fill="#444444"/>
<path fill-rule="evenodd" clip-rule="evenodd" d="M63.8723 41.825L63.8658 39.1668L62.5447 41.3568H62.0764L60.7615 39.2237V41.825H59.7866V37.3947H60.646L62.3266 40.1478L63.9813 37.3947H64.8345L64.8472 41.825H63.8723Z" fill="#444444"/>
<path fill-rule="evenodd" clip-rule="evenodd" d="M71.9606 39.0023C71.9606 38.5149 71.64 38.2302 71.0049 38.2302H70.1583V39.7682H71.0049C71.64 39.7682 71.9606 39.4833 71.9606 39.0023ZM73.0126 39.0023C73.0126 39.9895 72.2621 40.6037 71.0627 40.6037H70.1583V41.825H69.1191V37.3947H71.0627C72.2621 37.3947 73.0126 38.0085 73.0126 39.0023Z" fill="#444444"/>
<path fill-rule="evenodd" clip-rule="evenodd" d="M79.3626 40.0973L78.6507 38.401L77.9388 40.0973H79.3626ZM79.6898 40.8758H77.6053L77.2075 41.825H76.1428L78.144 37.3947H79.1702L81.1779 41.825H80.0875L79.6898 40.8758Z" fill="#444444"/>
<path fill-rule="evenodd" clip-rule="evenodd" d="M88.9712 37.3947V41.825H88.1183L85.8797 39.1353V41.825H84.8535V37.3947H85.7129L87.9449 40.0847V37.3947H88.9712Z" fill="#444444"/>
<path fill-rule="evenodd" clip-rule="evenodd" d="M95.3984 40.2554V41.825H94.3593V40.2428L92.6211 37.3945H93.7243L94.9238 39.3629L96.1233 37.3945H97.143L95.3984 40.2554Z" fill="#444444"/>
</g>
</svg>
