<svg width="52" height="52" viewBox="0 0 52 52" fill="none" xmlns="http://www.w3.org/2000/svg">
<g id="empleos">
<path id="Shape" fill-rule="evenodd" clip-rule="evenodd" d="M25.7056 15.7819H31.3565C31.7123 15.7819 32 16.0744 32 16.4363V25.8508C32 26.2127 31.7123 26.5052 31.3565 26.5052H31.2014V38.3456C31.2014 38.7075 30.9137 39 30.5578 39H7.44216C7.08628 39 6.79862 38.7075 6.79862 38.3456V26.5058H6.64353C6.28766 26.5058 6 26.2133 6 25.8514V16.4363C6 16.0744 6.28766 15.7819 6.64353 15.7819H12.2944V13.4077C12.2944 12.6315 12.907 12 13.6606 12H24.3394C25.093 12 25.7056 12.6309 25.7056 13.4077V15.7819ZM13.6606 13.3088C13.6181 13.3088 13.5815 13.354 13.5815 13.4077V15.7819H24.4185V13.4077C24.4185 13.354 24.3819 13.3088 24.3394 13.3088H13.6606ZM7.28707 17.0907H30.7129V25.197H27.5461V23.8613C27.5461 23.4994 27.2585 23.2069 26.9026 23.2069H23.5466C23.1907 23.2069 22.903 23.4994 22.903 23.8613V25.197H15.097V23.8613C15.097 23.4994 14.8093 23.2069 14.4534 23.2069H11.0974C10.7415 23.2069 10.4539 23.4994 10.4539 23.8613V25.197H7.28707V17.0907ZM26.259 26.9443V24.5151H24.1901V26.9443H26.259ZM13.8099 24.5151V26.9443H11.741V24.5151H13.8099ZM8.08569 37.6905H29.9143H29.915V26.5052H27.5468V27.5987C27.5468 27.9606 27.2591 28.2531 26.9032 28.2531H23.5472C23.1913 28.2531 22.9037 27.9606 22.9037 27.5987V26.5052H15.097V27.5987C15.097 27.9606 14.8093 28.2531 14.4534 28.2531H11.0974C10.7415 28.2531 10.4539 27.9606 10.4539 27.5987V26.5052H8.08569V37.6905Z" fill="black"/>
<path id="Shape_2" fill-rule="evenodd" clip-rule="evenodd" d="M51.3501 19.3646H37.0036V0.649992C37.0036 0.290546 36.7131 0 36.3537 0H0.649927C0.290517 0 0 0.290546 0 0.649992V45.4292C0 49.0523 2.96562 52 6.61106 52H45.3883C49.0337 52 52 49.0523 52 45.4292V20.0145C52 19.6551 51.7095 19.3646 51.3501 19.3646ZM6.61106 50.7C3.68249 50.7 1.29985 48.3353 1.29985 45.4292V1.29998H35.7037V44.7584C35.7005 44.7851 35.6985 44.8124 35.6985 44.8397C35.6985 47.2642 36.9217 49.4098 38.7863 50.7H6.61106ZM45.3883 50.7C48.3175 50.7 50.7001 48.336 50.7001 45.4292V20.6645H37.0036V44.8657C37.0036 44.891 37.0023 44.9157 36.999 44.9398C37.053 48.1111 39.6689 50.6747 42.8776 50.6747C42.94 50.6747 43.0005 50.6838 43.0577 50.7H45.3883Z" fill="black"/>
</g>
</svg>
