<svg width="20" height="19" viewBox="0 0 20 19" fill="none" xmlns="http://www.w3.org/2000/svg">
<path id="excelencia" fill-rule="evenodd" clip-rule="evenodd" d="M15.0992 18.8864C15.2442 18.9626 15.4032 18.9997 15.5623 18.9997C15.7703 18.9997 15.9773 18.9355 16.1503 18.8072C16.4583 18.5827 16.6113 18.2028 16.5473 17.8269L15.5753 12.1856L19.6954 8.19126C19.9705 7.92563 20.0685 7.5267 19.9515 7.16284C19.8354 6.79898 19.5214 6.53436 19.1444 6.47923L13.4432 5.64928L10.896 0.511202C10.558 -0.170401 9.44197 -0.170401 9.10396 0.511202L6.55684 5.64928L0.855586 6.47923C0.478568 6.53436 0.164554 6.79898 0.048549 7.16284C-0.0684563 7.5267 0.0295482 7.92563 0.304561 8.19126L4.42475 12.1856L3.4527 17.8269C3.3887 18.2028 3.54171 18.5827 3.84972 18.8072C4.15474 19.0317 4.56275 19.0628 4.90077 18.8864L10 16.2161L15.0992 18.8864ZM10.463 14.1964C10.318 14.1212 10.159 14.0831 10 14.0831C9.84099 14.0831 9.68199 14.1212 9.53698 14.1964L5.76781 16.171L6.48484 12.0042C6.54184 11.6775 6.43284 11.3447 6.19483 11.1131L3.15869 8.17021L7.36188 7.55677C7.68689 7.50966 7.96791 7.30618 8.11391 7.01148L10 3.20854L11.8861 7.01148C12.0321 7.30618 12.3131 7.50966 12.6381 7.55677L16.8413 8.17021L13.8052 11.1131C13.5672 11.3447 13.4582 11.6775 13.5152 12.0042L14.2322 16.171L10.463 14.1964Z" fill="#481AE7"/>
</svg>
