<svg width="30" height="30" viewBox="0 0 30 30" fill="none" xmlns="http://www.w3.org/2000/svg">
<g id="icn-content">
<path id="Mask" fill-rule="evenodd" clip-rule="evenodd" d="M4.6875 10.3125C4.6875 4.61736 9.30498 0 15 0C20.695 0 25.3125 4.61736 25.3125 10.3125C25.3125 13.7687 24.2941 15.0202 22.995 16.6168C22.0535 17.7738 20.9645 19.1121 20.0088 21.602C19.8008 22.1439 19.2781 22.5 18.6977 22.5H11.3023C10.7218 22.5 10.1992 22.1439 9.99117 21.602C9.03544 19.1121 7.94649 17.7738 7.005 16.6168C5.70585 15.0202 4.6875 13.7687 4.6875 10.3125ZM15 2.8125C19.1446 2.8125 22.5 6.16723 22.5 10.3125C22.5 12.8556 21.8148 13.6625 20.764 14.9C19.9359 15.8751 18.8809 17.1176 17.7551 19.6875H12.2449C11.1173 17.1133 10.0618 15.8734 9.23402 14.901C8.1838 13.6673 7.5 12.864 7.5 10.3125C7.5 6.16787 10.8547 2.8125 15 2.8125ZM15 6.5625C12.9322 6.5625 11.25 8.24473 11.25 10.3125C11.25 10.8302 10.8302 11.25 10.3125 11.25C9.79477 11.25 9.375 10.8302 9.375 10.3125C9.375 7.21084 11.8983 4.6875 15 4.6875C15.5178 4.6875 15.9375 5.10727 15.9375 5.625C15.9375 6.14273 15.5178 6.5625 15 6.5625ZM19.6875 26.7188V25.0781C19.6875 24.6898 19.3727 24.375 18.9844 24.375H11.0156C10.6273 24.375 10.3125 24.6898 10.3125 25.0781V26.7188C10.3125 27.331 10.7039 27.8516 11.25 28.0447V28.5938C11.25 29.3704 11.8796 30 12.6562 30H17.3438C18.1204 30 18.75 29.3704 18.75 28.5938V28.0447C19.2961 27.8516 19.6875 27.331 19.6875 26.7188Z" fill="black"/>
<mask id="mask0" mask-type="alpha" maskUnits="userSpaceOnUse" x="4" y="0" width="22" height="30">
<path id="Mask_2" fill-rule="evenodd" clip-rule="evenodd" d="M4.6875 10.3125C4.6875 4.61736 9.30498 0 15 0C20.695 0 25.3125 4.61736 25.3125 10.3125C25.3125 13.7687 24.2941 15.0202 22.995 16.6168C22.0535 17.7738 20.9645 19.1121 20.0088 21.602C19.8008 22.1439 19.2781 22.5 18.6977 22.5H11.3023C10.7218 22.5 10.1992 22.1439 9.99117 21.602C9.03544 19.1121 7.94649 17.7738 7.005 16.6168C5.70585 15.0202 4.6875 13.7687 4.6875 10.3125ZM15 2.8125C19.1446 2.8125 22.5 6.16723 22.5 10.3125C22.5 12.8556 21.8148 13.6625 20.764 14.9C19.9359 15.8751 18.8809 17.1176 17.7551 19.6875H12.2449C11.1173 17.1133 10.0618 15.8734 9.23402 14.901C8.1838 13.6673 7.5 12.864 7.5 10.3125C7.5 6.16787 10.8547 2.8125 15 2.8125ZM15 6.5625C12.9322 6.5625 11.25 8.24473 11.25 10.3125C11.25 10.8302 10.8302 11.25 10.3125 11.25C9.79477 11.25 9.375 10.8302 9.375 10.3125C9.375 7.21084 11.8983 4.6875 15 4.6875C15.5178 4.6875 15.9375 5.10727 15.9375 5.625C15.9375 6.14273 15.5178 6.5625 15 6.5625ZM19.6875 26.7188V25.0781C19.6875 24.6898 19.3727 24.375 18.9844 24.375H11.0156C10.6273 24.375 10.3125 24.6898 10.3125 25.0781V26.7188C10.3125 27.331 10.7039 27.8516 11.25 28.0447V28.5938C11.25 29.3704 11.8796 30 12.6562 30H17.3438C18.1204 30 18.75 29.3704 18.75 28.5938V28.0447C19.2961 27.8516 19.6875 27.331 19.6875 26.7188Z" fill="white"/>
</mask>
<g mask="url(#mask0)">
<g id="Color">
<rect id="Purple" width="30" height="30" fill="#5822F6"/>
</g>
</g>
</g>
</svg>
