<svg width="30" height="30" viewBox="0 0 30 30" fill="none" xmlns="http://www.w3.org/2000/svg">
<g id="icn-interaccion">
<path id="Mask" fill-rule="evenodd" clip-rule="evenodd" d="M28.875 7.50837H26.625C26.2919 7.50837 25.9927 7.6531 25.7867 7.88295H24.6839L23.2247 6.18329L23.2172 6.17486C22.2916 5.11786 20.9541 4.51159 19.5483 4.51172H17.3663C16.5342 4.51172 15.7303 4.74302 15.037 5.1677C14.2655 4.74255 13.3908 4.51172 12.4978 4.51172H10.9927C9.63783 4.51172 8.2927 5.03702 7.28016 6.0475L5.44313 7.88295H4.21331C4.00734 7.6531 3.70814 7.50837 3.375 7.50837H1.125C0.503672 7.50837 0 8.01148 0 8.63211V19.8696C0 20.4902 0.503672 20.9933 1.125 20.9933H3.375C3.8648 20.9933 4.28128 20.6805 4.43573 20.2441H5.31703L8.84906 23.4079C10.0463 24.6464 11.658 25.4883 13.3762 25.4883C14.1445 25.4883 14.8894 25.308 15.5372 24.9765C16.7061 24.9997 17.9325 24.4911 18.7748 23.5058C19.6975 23.2446 20.5328 22.6899 21.1523 21.8857C22.1362 21.6797 23.0615 21.1135 23.6564 20.2441H25.5643C25.7187 20.6805 26.1352 20.9933 26.625 20.9933H28.875C29.4963 20.9933 30 20.4902 30 19.8696V8.63211C30 8.01148 29.4963 7.50837 28.875 7.50837ZM2.24991 19.495C1.83567 19.495 1.49991 19.1596 1.49991 18.7458C1.49991 18.3321 1.83567 17.9967 2.24991 17.9967C2.66414 17.9967 2.99991 18.3321 2.99991 18.7458C2.99991 19.1596 2.66414 19.495 2.24991 19.495ZM19.7144 19.5998C19.8581 19.7557 20.8675 19.8946 21.5871 19.2252C22.1974 18.6582 22.3141 17.5565 21.6841 16.8729L18.2885 12.384L17.0707 13.7924C15.519 15.5365 12.7538 15.5195 11.2357 13.6997C10.1491 12.3971 10.1622 10.5176 11.2666 9.23094L13.2949 6.86687C13.0375 6.79617 12.7699 6.75918 12.498 6.75918H10.9928C10.1971 6.75919 9.43392 7.07499 8.87128 7.6371L6.81441 9.69168C6.53316 9.97262 6.15159 10.1304 5.75409 10.1304H4.50019V17.9966H5.60456C5.97417 17.9966 6.33075 18.133 6.60581 18.3796L10.4167 21.7935C11.1372 22.56 12.2069 23.2408 13.3764 23.2408C13.9474 23.2408 14.5835 23.0422 15.0002 22.626C16.0911 23.0041 17.154 22.2876 17.4138 21.4203C18.8586 21.5216 19.7807 20.2264 19.7144 19.5998ZM25.5002 17.9966H24.3537C24.3586 17.048 24.035 16.1551 23.4274 15.4495L19.7674 10.6118C19.9788 10.1665 19.8771 9.6177 19.4857 9.27964C19.0134 8.87271 18.303 8.92852 17.8985 9.39576L15.3846 12.3044C14.7364 13.0259 13.5929 13.0135 12.964 12.2608C12.5829 11.8063 12.5875 11.143 12.9747 10.6937L15.6897 7.52941C16.1092 7.0404 16.7218 6.75902 17.3665 6.75918H19.5485C20.3036 6.75918 21.0222 7.08413 21.5205 7.65068L23.6496 10.1304H25.5002V17.9966ZM27.0002 18.7458C27.0002 19.1596 27.3359 19.495 27.7502 19.495C28.1644 19.495 28.5002 19.1596 28.5002 18.7458C28.5002 18.3321 28.1644 17.9967 27.7502 17.9967C27.3359 17.9967 27.0002 18.3321 27.0002 18.7458Z" fill="black"/>
<mask id="mask0" mask-type="alpha" maskUnits="userSpaceOnUse" x="0" y="4" width="30" height="22">
<path id="Mask_2" fill-rule="evenodd" clip-rule="evenodd" d="M28.875 7.50837H26.625C26.2919 7.50837 25.9927 7.6531 25.7867 7.88295H24.6839L23.2247 6.18329L23.2172 6.17486C22.2916 5.11786 20.9541 4.51159 19.5483 4.51172H17.3663C16.5342 4.51172 15.7303 4.74302 15.037 5.1677C14.2655 4.74255 13.3908 4.51172 12.4978 4.51172H10.9927C9.63783 4.51172 8.2927 5.03702 7.28016 6.0475L5.44313 7.88295H4.21331C4.00734 7.6531 3.70814 7.50837 3.375 7.50837H1.125C0.503672 7.50837 0 8.01148 0 8.63211V19.8696C0 20.4902 0.503672 20.9933 1.125 20.9933H3.375C3.8648 20.9933 4.28128 20.6805 4.43573 20.2441H5.31703L8.84906 23.4079C10.0463 24.6464 11.658 25.4883 13.3762 25.4883C14.1445 25.4883 14.8894 25.308 15.5372 24.9765C16.7061 24.9997 17.9325 24.4911 18.7748 23.5058C19.6975 23.2446 20.5328 22.6899 21.1523 21.8857C22.1362 21.6797 23.0615 21.1135 23.6564 20.2441H25.5643C25.7187 20.6805 26.1352 20.9933 26.625 20.9933H28.875C29.4963 20.9933 30 20.4902 30 19.8696V8.63211C30 8.01148 29.4963 7.50837 28.875 7.50837ZM2.24991 19.495C1.83567 19.495 1.49991 19.1596 1.49991 18.7458C1.49991 18.3321 1.83567 17.9967 2.24991 17.9967C2.66414 17.9967 2.99991 18.3321 2.99991 18.7458C2.99991 19.1596 2.66414 19.495 2.24991 19.495ZM19.7144 19.5998C19.8581 19.7557 20.8675 19.8946 21.5871 19.2252C22.1974 18.6582 22.3141 17.5565 21.6841 16.8729L18.2885 12.384L17.0707 13.7924C15.519 15.5365 12.7538 15.5195 11.2357 13.6997C10.1491 12.3971 10.1622 10.5176 11.2666 9.23094L13.2949 6.86687C13.0375 6.79617 12.7699 6.75918 12.498 6.75918H10.9928C10.1971 6.75919 9.43392 7.07499 8.87128 7.6371L6.81441 9.69168C6.53316 9.97262 6.15159 10.1304 5.75409 10.1304H4.50019V17.9966H5.60456C5.97417 17.9966 6.33075 18.133 6.60581 18.3796L10.4167 21.7935C11.1372 22.56 12.2069 23.2408 13.3764 23.2408C13.9474 23.2408 14.5835 23.0422 15.0002 22.626C16.0911 23.0041 17.154 22.2876 17.4138 21.4203C18.8586 21.5216 19.7807 20.2264 19.7144 19.5998ZM25.5002 17.9966H24.3537C24.3586 17.048 24.035 16.1551 23.4274 15.4495L19.7674 10.6118C19.9788 10.1665 19.8771 9.6177 19.4857 9.27964C19.0134 8.87271 18.303 8.92852 17.8985 9.39576L15.3846 12.3044C14.7364 13.0259 13.5929 13.0135 12.964 12.2608C12.5829 11.8063 12.5875 11.143 12.9747 10.6937L15.6897 7.52941C16.1092 7.0404 16.7218 6.75902 17.3665 6.75918H19.5485C20.3036 6.75918 21.0222 7.08413 21.5205 7.65068L23.6496 10.1304H25.5002V17.9966ZM27.0002 18.7458C27.0002 19.1596 27.3359 19.495 27.7502 19.495C28.1644 19.495 28.5002 19.1596 28.5002 18.7458C28.5002 18.3321 28.1644 17.9967 27.7502 17.9967C27.3359 17.9967 27.0002 18.3321 27.0002 18.7458Z" fill="white"/>
</mask>
<g mask="url(#mask0)">
<g id="Color">
<rect id="Purple" width="30" height="30" fill="#5822F6"/>
</g>
</g>
</g>
</svg>
