<svg width="30" height="30" viewBox="0 0 30 30" fill="none" xmlns="http://www.w3.org/2000/svg">
<g id="icn-oportunidad">
<path id="Mask" fill-rule="evenodd" clip-rule="evenodd" d="M3.75 2.8125V27.1875C3.75 28.7408 5.00918 30 6.5625 30H23.4375C24.9908 30 26.25 28.7408 26.25 27.1875V2.8125C26.25 1.25918 24.9908 0 23.4375 0H6.5625C5.00918 0 3.75 1.25918 3.75 2.8125ZM18.75 11.25C18.75 9.17895 17.0711 7.5 15 7.5C12.9289 7.5 11.25 9.17895 11.25 11.25C11.25 13.3211 12.9289 15 15 15C17.0711 15 18.75 13.3211 18.75 11.25ZM17.5267 15.7433L18.5852 16.0457C19.7926 16.3906 20.625 17.4942 20.625 18.75V22.9687C20.625 23.7454 19.9954 24.375 19.2188 24.375H10.7812C10.0046 24.375 9.375 23.7454 9.375 22.9687V18.75C9.375 17.4942 10.2074 16.3906 11.4149 16.0457L12.4733 15.7433C13.2204 16.1651 14.0825 16.4062 15 16.4062C15.9175 16.4062 16.7796 16.1651 17.5267 15.7433ZM23.4375 26.8359V4.6875H6.5625V26.8359C6.5625 27.0301 6.7199 27.1875 6.91406 27.1875H23.0859C23.2801 27.1875 23.4375 27.0301 23.4375 26.8359Z" fill="black"/>
<mask id="mask0" mask-type="alpha" maskUnits="userSpaceOnUse" x="3" y="0" width="24" height="30">
<path id="Mask_2" fill-rule="evenodd" clip-rule="evenodd" d="M3.75 2.8125V27.1875C3.75 28.7408 5.00918 30 6.5625 30H23.4375C24.9908 30 26.25 28.7408 26.25 27.1875V2.8125C26.25 1.25918 24.9908 0 23.4375 0H6.5625C5.00918 0 3.75 1.25918 3.75 2.8125ZM18.75 11.25C18.75 9.17895 17.0711 7.5 15 7.5C12.9289 7.5 11.25 9.17895 11.25 11.25C11.25 13.3211 12.9289 15 15 15C17.0711 15 18.75 13.3211 18.75 11.25ZM17.5267 15.7433L18.5852 16.0457C19.7926 16.3906 20.625 17.4942 20.625 18.75V22.9687C20.625 23.7454 19.9954 24.375 19.2188 24.375H10.7812C10.0046 24.375 9.375 23.7454 9.375 22.9687V18.75C9.375 17.4942 10.2074 16.3906 11.4149 16.0457L12.4733 15.7433C13.2204 16.1651 14.0825 16.4062 15 16.4062C15.9175 16.4062 16.7796 16.1651 17.5267 15.7433ZM23.4375 26.8359V4.6875H6.5625V26.8359C6.5625 27.0301 6.7199 27.1875 6.91406 27.1875H23.0859C23.2801 27.1875 23.4375 27.0301 23.4375 26.8359Z" fill="white"/>
</mask>
<g mask="url(#mask0)">
<g id="Color">
<rect id="Purple" width="30" height="30" fill="#5822F6"/>
</g>
</g>
</g>
</svg>
