<svg width="30" height="30" viewBox="0 0 30 30" fill="none" xmlns="http://www.w3.org/2000/svg">
<g id="icn-aprende">
<path id="Mask" fill-rule="evenodd" clip-rule="evenodd" d="M27.1875 0H8.4375C6.88418 0 5.625 1.25918 5.625 2.8125V5.625H2.8125C1.25918 5.625 0 6.88418 0 8.4375V27.1875C0 28.7408 1.25918 30 2.8125 30H21.5625C23.1158 30 24.375 28.7408 24.375 27.1875V24.375H27.1875C28.7408 24.375 30 23.1158 30 21.5625V2.8125C30 1.25918 28.7408 0 27.1875 0ZM21.2109 27.1875H3.16406C2.9699 27.1875 2.8125 27.0301 2.8125 26.8359V8.78906C2.8125 8.5949 2.9699 8.4375 3.16406 8.4375H5.625V21.5625C5.625 23.1158 6.88418 24.375 8.4375 24.375H21.5625V26.8359C21.5625 27.0301 21.4051 27.1875 21.2109 27.1875ZM8.78906 21.5625H26.8359C27.0301 21.5625 27.1875 21.4051 27.1875 21.2109V3.16406C27.1875 2.9699 27.0301 2.8125 26.8359 2.8125H8.78906C8.5949 2.8125 8.4375 2.9699 8.4375 3.16406V21.2109C8.4375 21.4051 8.5949 21.5625 8.78906 21.5625Z" fill="black"/>
<mask id="mask0" mask-type="alpha" maskUnits="userSpaceOnUse" x="0" y="0" width="30" height="30">
<path id="Mask_2" fill-rule="evenodd" clip-rule="evenodd" d="M27.1875 0H8.4375C6.88418 0 5.625 1.25918 5.625 2.8125V5.625H2.8125C1.25918 5.625 0 6.88418 0 8.4375V27.1875C0 28.7408 1.25918 30 2.8125 30H21.5625C23.1158 30 24.375 28.7408 24.375 27.1875V24.375H27.1875C28.7408 24.375 30 23.1158 30 21.5625V2.8125C30 1.25918 28.7408 0 27.1875 0ZM21.2109 27.1875H3.16406C2.9699 27.1875 2.8125 27.0301 2.8125 26.8359V8.78906C2.8125 8.5949 2.9699 8.4375 3.16406 8.4375H5.625V21.5625C5.625 23.1158 6.88418 24.375 8.4375 24.375H21.5625V26.8359C21.5625 27.0301 21.4051 27.1875 21.2109 27.1875ZM8.78906 21.5625H26.8359C27.0301 21.5625 27.1875 21.4051 27.1875 21.2109V3.16406C27.1875 2.9699 27.0301 2.8125 26.8359 2.8125H8.78906C8.5949 2.8125 8.4375 2.9699 8.4375 3.16406V21.2109C8.4375 21.4051 8.5949 21.5625 8.78906 21.5625Z" fill="white"/>
</mask>
<g mask="url(#mask0)">
<g id="Color">
<rect id="Purple" width="30" height="30" fill="#5822F6"/>
</g>
</g>
</g>
</svg>
