<svg width="30" height="30" viewBox="0 0 30 30" fill="none" xmlns="http://www.w3.org/2000/svg">
<g id="icn-eventos">
<path id="Mask" fill-rule="evenodd" clip-rule="evenodd" d="M30 23.4375C30 24.9908 28.7408 26.25 27.1875 26.25H2.8125C1.25918 26.25 0 24.9908 0 23.4375V6.5625C0 5.00918 1.25918 3.75 2.8125 3.75H27.1875C28.7408 3.75 30 5.00918 30 6.5625V23.4375ZM17.5781 15H23.6719C24.0602 15 24.375 14.6852 24.375 14.2969V12.8906C24.375 12.5023 24.0602 12.1875 23.6719 12.1875H17.5781C17.1898 12.1875 16.875 12.5023 16.875 12.8906V14.2969C16.875 14.6852 17.1898 15 17.5781 15ZM24.375 17.5781V18.9844C24.375 19.3727 24.0602 19.6875 23.6719 19.6875H17.5781C17.1898 19.6875 16.875 19.3727 16.875 18.9844V17.5781C16.875 17.1898 17.1898 16.875 17.5781 16.875H23.6719C24.0602 16.875 24.375 17.1898 24.375 17.5781ZM27.1875 8.4375V23.0859C27.1875 23.2801 27.0301 23.4375 26.8359 23.4375H3.16406C2.9699 23.4375 2.8125 23.2801 2.8125 23.0859V8.4375H27.1875ZM10.3125 17.3438C12.1247 17.3438 13.5938 15.8747 13.5938 14.0625C13.5938 12.2503 12.1247 10.7812 10.3125 10.7812C8.50031 10.7812 7.03125 12.2503 7.03125 14.0625C7.03125 15.8747 8.50031 17.3438 10.3125 17.3438ZM13.2089 17.7439L13.9978 17.9805C14.5926 18.159 15 18.7065 15 19.3275V21.7968C15 22.1851 14.6852 22.4999 14.2969 22.4999H6.32812C5.93982 22.4999 5.625 22.1851 5.625 21.7968V19.3275C5.62499 18.7065 6.03232 18.159 6.62713 17.9805L7.41604 17.7439C8.21402 18.3731 9.21979 18.7499 10.3125 18.7499C11.4052 18.7499 12.411 18.3731 13.2089 17.7439Z" fill="black"/>
<mask id="mask0" mask-type="alpha" maskUnits="userSpaceOnUse" x="0" y="3" width="30" height="24">
<path id="Mask_2" fill-rule="evenodd" clip-rule="evenodd" d="M30 23.4375C30 24.9908 28.7408 26.25 27.1875 26.25H2.8125C1.25918 26.25 0 24.9908 0 23.4375V6.5625C0 5.00918 1.25918 3.75 2.8125 3.75H27.1875C28.7408 3.75 30 5.00918 30 6.5625V23.4375ZM17.5781 15H23.6719C24.0602 15 24.375 14.6852 24.375 14.2969V12.8906C24.375 12.5023 24.0602 12.1875 23.6719 12.1875H17.5781C17.1898 12.1875 16.875 12.5023 16.875 12.8906V14.2969C16.875 14.6852 17.1898 15 17.5781 15ZM24.375 17.5781V18.9844C24.375 19.3727 24.0602 19.6875 23.6719 19.6875H17.5781C17.1898 19.6875 16.875 19.3727 16.875 18.9844V17.5781C16.875 17.1898 17.1898 16.875 17.5781 16.875H23.6719C24.0602 16.875 24.375 17.1898 24.375 17.5781ZM27.1875 8.4375V23.0859C27.1875 23.2801 27.0301 23.4375 26.8359 23.4375H3.16406C2.9699 23.4375 2.8125 23.2801 2.8125 23.0859V8.4375H27.1875ZM10.3125 17.3438C12.1247 17.3438 13.5938 15.8747 13.5938 14.0625C13.5938 12.2503 12.1247 10.7812 10.3125 10.7812C8.50031 10.7812 7.03125 12.2503 7.03125 14.0625C7.03125 15.8747 8.50031 17.3438 10.3125 17.3438ZM13.2089 17.7439L13.9978 17.9805C14.5926 18.159 15 18.7065 15 19.3275V21.7968C15 22.1851 14.6852 22.4999 14.2969 22.4999H6.32812C5.93982 22.4999 5.625 22.1851 5.625 21.7968V19.3275C5.62499 18.7065 6.03232 18.159 6.62713 17.9805L7.41604 17.7439C8.21402 18.3731 9.21979 18.7499 10.3125 18.7499C11.4052 18.7499 12.411 18.3731 13.2089 17.7439Z" fill="white"/>
</mask>
<g mask="url(#mask0)">
<g id="Color">
<rect id="Purple" width="30" height="30" fill="#5822F6"/>
</g>
</g>
</g>
</svg>
