<svg width="30" height="30" viewBox="0 0 30 30" fill="none" xmlns="http://www.w3.org/2000/svg">
<g id="icn-networking">
<path id="Mask" fill-rule="evenodd" clip-rule="evenodd" d="M25 12.6528C25 8.2343 20.3226 3.33984 12.5001 3.33984C4.66188 3.33984 0.000271221 8.24643 0.000271221 12.6528C0.000271221 14.0807 0.421365 15.4505 1.25183 16.7243C1.54777 17.1782 1.88938 17.61 2.27444 18.0175C2.05595 18.2027 1.7611 18.4015 1.36199 18.6054C0.3335 19.1311 -0.20077 20.2927 0.0697504 21.4151C0.340219 22.5376 1.34501 23.3287 2.50022 23.3287C4.46798 23.3287 6.57871 22.7307 8.78699 21.5491C9.9824 21.8259 11.2267 21.9657 12.5001 21.9657C14.2887 21.9657 15.984 21.7093 17.539 21.2034C19.0033 20.727 20.316 20.0405 21.4407 19.163C22.5336 18.3103 23.4014 17.3178 24.02 16.2129C24.6611 15.0678 25 13.8368 25 12.6528ZM12.5001 5.83848C6.09728 5.83848 2.5002 9.63204 2.5002 12.6529C2.5002 14.6411 3.79494 16.3004 5.38514 17.4042C5.20145 18.5487 4.5002 19.808 2.5002 20.8301C4.83353 20.8301 7.09967 19.6803 8.44389 18.8701C9.77306 19.2817 11.1461 19.4672 12.5001 19.4672C18.9061 19.4672 22.5 15.6755 22.5 12.6529C22.5 9.6323 18.9033 5.83848 12.5001 5.83848ZM29.9221 24.779C29.6398 25.8857 28.6424 26.6602 27.4997 26.6602C25.8202 26.6602 24.0356 26.1402 22.182 25.1124C19.5445 25.7176 16.497 25.5224 13.9549 24.413C16.0978 24.261 18.1404 23.7707 20.0138 22.9187C20.8639 22.8552 21.7156 22.6939 22.5467 22.4194C23.6668 23.1395 25.5552 24.1616 27.4997 24.1616C25.833 23.253 25.2487 22.1337 25.0956 21.1163C26.4207 20.1352 27.4997 18.6602 27.4997 16.8929C27.4997 16.3466 27.3756 15.7719 27.133 15.2028C27.5186 13.8531 27.5838 12.59 27.403 11.3541C29.0782 12.9397 29.9997 14.9525 29.9997 16.8929C29.9997 18.6572 29.3271 20.2789 28.178 21.636C28.3162 21.7421 28.4865 21.8534 28.6969 21.968C29.7 22.515 30.2045 23.6722 29.9221 24.779Z" fill="black"/>
<mask id="mask0" mask-type="alpha" maskUnits="userSpaceOnUse" x="0" y="3" width="30" height="24">
<path id="Mask_2" fill-rule="evenodd" clip-rule="evenodd" d="M25 12.6528C25 8.2343 20.3226 3.33984 12.5001 3.33984C4.66188 3.33984 0.000271221 8.24643 0.000271221 12.6528C0.000271221 14.0807 0.421365 15.4505 1.25183 16.7243C1.54777 17.1782 1.88938 17.61 2.27444 18.0175C2.05595 18.2027 1.7611 18.4015 1.36199 18.6054C0.3335 19.1311 -0.20077 20.2927 0.0697504 21.4151C0.340219 22.5376 1.34501 23.3287 2.50022 23.3287C4.46798 23.3287 6.57871 22.7307 8.78699 21.5491C9.9824 21.8259 11.2267 21.9657 12.5001 21.9657C14.2887 21.9657 15.984 21.7093 17.539 21.2034C19.0033 20.727 20.316 20.0405 21.4407 19.163C22.5336 18.3103 23.4014 17.3178 24.02 16.2129C24.6611 15.0678 25 13.8368 25 12.6528ZM12.5001 5.83848C6.09728 5.83848 2.5002 9.63204 2.5002 12.6529C2.5002 14.6411 3.79494 16.3004 5.38514 17.4042C5.20145 18.5487 4.5002 19.808 2.5002 20.8301C4.83353 20.8301 7.09967 19.6803 8.44389 18.8701C9.77306 19.2817 11.1461 19.4672 12.5001 19.4672C18.9061 19.4672 22.5 15.6755 22.5 12.6529C22.5 9.6323 18.9033 5.83848 12.5001 5.83848ZM29.9221 24.779C29.6398 25.8857 28.6424 26.6602 27.4997 26.6602C25.8202 26.6602 24.0356 26.1402 22.182 25.1124C19.5445 25.7176 16.497 25.5224 13.9549 24.413C16.0978 24.261 18.1404 23.7707 20.0138 22.9187C20.8639 22.8552 21.7156 22.6939 22.5467 22.4194C23.6668 23.1395 25.5552 24.1616 27.4997 24.1616C25.833 23.253 25.2487 22.1337 25.0956 21.1163C26.4207 20.1352 27.4997 18.6602 27.4997 16.8929C27.4997 16.3466 27.3756 15.7719 27.133 15.2028C27.5186 13.8531 27.5838 12.59 27.403 11.3541C29.0782 12.9397 29.9997 14.9525 29.9997 16.8929C29.9997 18.6572 29.3271 20.2789 28.178 21.636C28.3162 21.7421 28.4865 21.8534 28.6969 21.968C29.7 22.515 30.2045 23.6722 29.9221 24.779Z" fill="white"/>
</mask>
<g mask="url(#mask0)">
<g id="Color">
<rect id="Purple" width="30" height="30" fill="#5822F6"/>
</g>
</g>
</g>
</svg>
