<svg width="22" height="19" viewBox="0 0 22 19" fill="none" xmlns="http://www.w3.org/2000/svg">
<path id="mujer tech" fill-rule="evenodd" clip-rule="evenodd" d="M9.99965 2.99983C9.99965 3.5518 10.4476 3.99978 10.9996 3.99978C11.5516 3.99978 11.9996 3.5518 11.9996 2.99983C11.9996 2.44786 11.5516 1.99989 10.9996 1.99989C10.4476 1.99989 9.99965 2.44786 9.99965 2.99983ZM7.99972 2.99983C7.99972 1.34592 9.34567 0 10.9996 0C12.6536 0 13.9995 1.34592 13.9995 2.99983C13.9995 4.65374 12.6536 5.99966 10.9996 5.99966C9.34567 5.99966 7.99972 4.65374 7.99972 2.99983ZM16.9511 5.37337L21.779 11.373C22.078 11.744 22.073 12.274 21.768 12.641L16.7681 18.6406C16.5702 18.8776 16.2862 18.9996 15.9992 18.9996C15.7732 18.9996 15.5472 18.9236 15.3592 18.7686C14.9352 18.4146 14.8782 17.7837 15.2312 17.3587L19.708 11.989L15.3922 6.6273C15.0472 6.19632 15.1142 5.56736 15.5452 5.22137C15.9752 4.87339 16.6042 4.94339 16.9511 5.37337ZM5.23185 5.35977C5.58484 4.93579 6.21382 4.87879 6.6408 5.23177C7.06479 5.58575 7.12179 6.21572 6.7688 6.64069L2.29196 12.0104L6.60781 17.3731C6.95279 17.8031 6.8858 18.432 6.45481 18.779C6.27082 18.927 6.04883 19 5.82883 19C5.53684 19 5.24685 18.872 5.04886 18.627L0.221032 12.6274C-0.0779575 12.2554 -0.0729577 11.7254 0.232032 11.3594L5.23185 5.35977ZM7.13889 14.9992H14.8608C15.4775 14.9992 16.0338 14.6407 16.3133 14.0637C16.6304 13.4101 16.5378 12.6369 16.076 12.0921L12.215 7.54602C11.6001 6.81747 10.4005 6.81747 9.78464 7.54602L5.92278 12.093C5.46181 12.6369 5.37017 13.4101 5.68634 14.0637C5.96585 14.6407 6.52305 14.9992 7.13889 14.9992ZM14.5822 13.2157H7.34692L10.998 8.91573L14.5822 13.2157Z" fill="#481AE7"/>
</svg>
