<svg width="20" height="20" viewBox="0 0 20 20" fill="none" xmlns="http://www.w3.org/2000/svg">
<path fill-rule="evenodd" clip-rule="evenodd" d="M0 10C0 4.486 4.486 0 10 0C15.514 0 20 4.486 20 10C20 15.514 15.514 20 10 20C4.486 20 0 15.514 0 10ZM10 18C5.589 18 2 14.411 2 10C2 5.589 5.589 2 10 2C14.411 2 18 5.589 18 10C18 14.411 14.411 18 10 18ZM14 9H11V6C11 5.447 10.552 5 10 5C9.448 5 9 5.447 9 6V10C9 10.553 9.448 11 10 11H14C14.553 11 15 10.553 15 10C15 9.447 14.553 9 14 9Z" fill="white"/>
</svg>
