<svg width="54" height="54" viewBox="0 0 54 54" fill="none" xmlns="http://www.w3.org/2000/svg">
<g id="sedes">
<path id="Shape" fill-rule="evenodd" clip-rule="evenodd" d="M17.3624 17H11.6376C11.2855 17 11 16.7145 11 16.3624V10.6376C11 10.2855 11.2855 10 11.6376 10H17.3624C17.7145 10 18 10.2855 18 10.6376V16.3624C18 16.7145 17.7145 17 17.3624 17ZM16.7249 11.2751H12.2751V15.7249H16.7249V11.2751Z" fill="black"/>
<path id="Shape_2" fill-rule="evenodd" clip-rule="evenodd" d="M30.3624 17H24.6376C24.2855 17 24 16.7145 24 16.3624V10.6376C24 10.2855 24.2855 10 24.6376 10H30.3624C30.7145 10 31 10.2855 31 10.6376V16.3624C31 16.7145 30.7145 17 30.3624 17ZM29.7249 11.2751H25.2751V15.7249H29.7249V11.2751Z" fill="black"/>
<path id="Shape_3" fill-rule="evenodd" clip-rule="evenodd" d="M42.3624 17H36.6376C36.2855 17 36 16.7145 36 16.3624V10.6376C36 10.2855 36.2855 10 36.6376 10H42.3624C42.7145 10 43 10.2855 43 10.6376V16.3624C43 16.7145 42.7145 17 42.3624 17ZM41.7249 11.2751H37.2751V15.7249H41.7249V11.2751Z" fill="black"/>
<path id="Shape_4" fill-rule="evenodd" clip-rule="evenodd" d="M17.3624 29H11.6376C11.2855 29 11 28.7145 11 28.3624V22.6376C11 22.2855 11.2855 22 11.6376 22H17.3624C17.7145 22 18 22.2855 18 22.6376V28.3624C18 28.7145 17.7145 29 17.3624 29ZM16.7249 23.2751H12.2751V27.7249H16.7249V23.2751Z" fill="black"/>
<path id="Shape_5" fill-rule="evenodd" clip-rule="evenodd" d="M30.3624 29H24.6376C24.2855 29 24 28.7145 24 28.3624V22.6376C24 22.2855 24.2855 22 24.6376 22H30.3624C30.7145 22 31 22.2855 31 22.6376V28.3624C31 28.7145 30.7145 29 30.3624 29ZM29.7249 23.2751H25.2751V27.7249H29.7249V23.2751Z" fill="black"/>
<path id="Shape_6" fill-rule="evenodd" clip-rule="evenodd" d="M42.3624 29H36.6376C36.2855 29 36 28.7145 36 28.3624V22.6376C36 22.2855 36.2855 22 36.6376 22H42.3624C42.7145 22 43 22.2855 43 22.6376V28.3624C43 28.7145 42.7145 29 42.3624 29ZM41.7249 23.2751H37.2751V27.7249H41.7249V23.2751Z" fill="black"/>
<path id="Shape_7" fill-rule="evenodd" clip-rule="evenodd" d="M17.3624 41H11.6376C11.2855 41 11 40.7145 11 40.3624V34.6376C11 34.2855 11.2855 34 11.6376 34H17.3624C17.7145 34 18 34.2855 18 34.6376V40.3624C18 40.7145 17.7145 41 17.3624 41ZM16.7249 35.2751H12.2751V39.7249H16.7249V35.2751Z" fill="black"/>
<path id="Shape_8" fill-rule="evenodd" clip-rule="evenodd" d="M42.3624 41H36.6376C36.2855 41 36 40.7145 36 40.3624V34.6376C36 34.2855 36.2855 34 36.6376 34H42.3624C42.7145 34 43 34.2855 43 34.6376V40.3624C43 40.7145 42.7145 41 42.3624 41ZM41.7249 35.2751H37.2751V39.7249H41.7249V35.2751Z" fill="black"/>
<path id="Shape_9" fill-rule="evenodd" clip-rule="evenodd" d="M53.325 6.32252C53.6978 6.32252 54 6.02029 54 5.64752C54 5.27476 53.6978 4.97252 53.325 4.97252H50.9625V0.675C50.9625 0.302234 50.6603 0 50.2875 0H3.7125C3.33973 0 3.0375 0.302234 3.0375 0.675V4.97252H0.675C0.302234 4.97252 0 5.27476 0 5.64752C0 6.02029 0.302234 6.32252 0.675 6.32252H3.0375V46.2375H0.675C0.302234 46.2375 0 46.5397 0 46.9125V53.325C0 53.6978 0.302234 54 0.675 54H53.325C53.6978 54 54 53.6978 54 53.325V46.9125C54 46.5397 53.6978 46.2375 53.325 46.2375H50.9625V6.32252H53.325ZM4.3875 1.35H49.6125V4.97252H4.3875V1.35ZM1.35 52.65H52.65V47.5875H1.35V52.65ZM30.5437 46.2375H23.4562V34.9794H30.5437V46.2375ZM31.8937 46.2375H49.6125V6.32252H4.3875V46.2375H22.1063V34.3044C22.1063 33.9316 22.4085 33.6294 22.7812 33.6294H31.2188C31.5915 33.6294 31.8937 33.9316 31.8937 34.3044V46.2375Z" fill="black"/>
</g>
</svg>
