<svg width="15" height="18" viewBox="0 0 15 18" fill="none" xmlns="http://www.w3.org/2000/svg">
<path id="vulnerable" fill-rule="evenodd" clip-rule="evenodd" d="M7.49199 18H7.499C9.5083 18 11.3955 17.2047 12.8155 15.7582C15.7323 12.7862 15.7273 7.9516 12.8054 4.98659L8.21246 0.296003C7.83121 -0.0961301 7.1948 -0.0961301 6.79754 0.280998C6.5834 0.485067 6.47033 0.774165 6.48934 1.06926C6.49735 1.20831 6.49735 1.34736 6.49735 1.49441C6.49735 4.05228 5.85493 5.56379 5.4997 5.93791C5.3486 5.77186 5.07442 5.33471 4.84427 4.44541C4.75422 4.09729 4.48404 3.8242 4.13682 3.73017C3.78759 3.63914 3.41835 3.73717 3.16418 3.99125L2.18054 4.98559C-0.730347 7.9516 -0.726344 12.7862 2.18955 15.7572C3.60147 17.2027 5.48469 17.998 7.49199 18ZM3.61948 14.3578C1.5001 12.198 1.45707 8.71085 3.4904 6.51111C4.15983 7.77053 4.98837 7.99661 5.4967 7.99661C7.15578 7.99661 8.08738 5.81787 8.38958 3.33503L11.3775 6.38707C13.5399 8.58281 13.5439 12.159 11.3865 14.3578C10.3468 15.4161 8.96695 15.9993 7.499 15.9993H7.494C6.02904 15.9983 4.65415 15.4151 3.61948 14.3578Z" fill="#481AE7"/>
</svg>
